<svg xmlns="http://www.w3.org/2000/svg" xmlns:xlink="http://www.w3.org/1999/xlink" width="500" zoomAndPan="magnify" viewBox="0 0 375 374.999991" height="500" preserveAspectRatio="xMidYMid meet" version="1.0"><defs><g/><clipPath id="b13b9c18f3"><path d="M 159 228 L 166 228 L 166 238.644531 L 159 238.644531 Z M 159 228 " clip-rule="nonzero"/></clipPath><clipPath id="3f8c04c94e"><path d="M 140.109375 149.394531 L 225 149.394531 L 225 229 L 140.109375 229 Z M 140.109375 149.394531 " clip-rule="nonzero"/></clipPath><clipPath id="7073b901f6"><path d="M 212 195 L 225.609375 195 L 225.609375 208 L 212 208 Z M 212 195 " clip-rule="nonzero"/></clipPath></defs><g fill="#000000" fill-opacity="1"><g transform="translate(241.410092, 206.249986)"><g><path d="M 0.90625 0.046875 C 0.832031 0.046875 0.769531 0.015625 0.71875 -0.046875 C 0.675781 -0.117188 0.65625 -0.203125 0.65625 -0.296875 C 0.664062 -0.441406 0.695312 -0.53125 0.75 -0.5625 C 0.800781 -0.59375 0.894531 -0.609375 1.03125 -0.609375 C 1.320312 -0.609375 1.539062 -0.660156 1.6875 -0.765625 C 1.832031 -0.867188 1.921875 -1 1.953125 -1.15625 C 1.992188 -1.320312 2.019531 -1.53125 2.03125 -1.78125 L 2.03125 -7.828125 C 2.019531 -8.078125 1.992188 -8.28125 1.953125 -8.4375 C 1.921875 -8.59375 1.832031 -8.722656 1.6875 -8.828125 C 1.539062 -8.941406 1.320312 -9 1.03125 -9 L 0.9375 -9 C 0.84375 -9 0.773438 -9.015625 0.734375 -9.046875 C 0.691406 -9.078125 0.664062 -9.164062 0.65625 -9.3125 C 0.65625 -9.40625 0.675781 -9.484375 0.71875 -9.546875 C 0.769531 -9.617188 0.832031 -9.65625 0.90625 -9.65625 C 1.582031 -9.625 2.1875 -9.609375 2.71875 -9.609375 L 5.09375 -9.609375 C 6.070312 -9.609375 6.957031 -9.410156 7.75 -9.015625 C 8.550781 -8.628906 9.179688 -8.066406 9.640625 -7.328125 C 10.097656 -6.597656 10.328125 -5.738281 10.328125 -4.75 C 10.328125 -3.71875 10.066406 -2.84375 9.546875 -2.125 C 9.023438 -1.40625 8.34375 -0.867188 7.5 -0.515625 C 6.664062 -0.171875 5.773438 0 4.828125 0 L 2.71875 0 C 2.1875 0 1.582031 0.015625 0.90625 0.046875 Z M 5.046875 -0.5625 C 6.234375 -0.5625 7.101562 -0.925781 7.65625 -1.65625 C 8.207031 -2.394531 8.484375 -3.425781 8.484375 -4.75 C 8.484375 -5.582031 8.332031 -6.320312 8.03125 -6.96875 C 7.738281 -7.625 7.304688 -8.132812 6.734375 -8.5 C 6.171875 -8.875 5.5 -9.0625 4.71875 -9.0625 L 3.53125 -9.046875 L 3.53125 -1.59375 C 3.53125 -1.195312 3.648438 -0.925781 3.890625 -0.78125 C 4.128906 -0.632812 4.515625 -0.5625 5.046875 -0.5625 Z M 5.046875 -0.5625 "/></g></g></g><g fill="#000000" fill-opacity="1"><g transform="translate(262.377406, 206.249986)"><g><path d="M 0.921875 0.046875 C 0.835938 0.046875 0.769531 0.015625 0.71875 -0.046875 C 0.675781 -0.117188 0.65625 -0.203125 0.65625 -0.296875 C 0.664062 -0.441406 0.695312 -0.53125 0.75 -0.5625 C 0.800781 -0.59375 0.894531 -0.609375 1.03125 -0.609375 C 1.320312 -0.609375 1.539062 -0.660156 1.6875 -0.765625 C 1.832031 -0.867188 1.921875 -1 1.953125 -1.15625 C 1.992188 -1.320312 2.019531 -1.53125 2.03125 -1.78125 L 2.03125 -7.8125 C 2.019531 -8.070312 1.992188 -8.273438 1.953125 -8.421875 C 1.921875 -8.578125 1.832031 -8.710938 1.6875 -8.828125 C 1.539062 -8.941406 1.320312 -9 1.03125 -9 L 0.9375 -9 C 0.84375 -9 0.773438 -9.015625 0.734375 -9.046875 C 0.691406 -9.078125 0.664062 -9.164062 0.65625 -9.3125 C 0.65625 -9.40625 0.675781 -9.484375 0.71875 -9.546875 C 0.769531 -9.617188 0.835938 -9.65625 0.921875 -9.65625 C 1.585938 -9.625 2.191406 -9.609375 2.734375 -9.609375 L 5.359375 -9.609375 C 6.140625 -9.597656 6.789062 -9.472656 7.3125 -9.234375 C 7.832031 -8.992188 8.210938 -8.6875 8.453125 -8.3125 C 8.703125 -7.945312 8.828125 -7.550781 8.828125 -7.125 C 8.828125 -6.5625 8.601562 -6.046875 8.15625 -5.578125 C 7.71875 -5.117188 7.117188 -4.785156 6.359375 -4.578125 L 6.625 -4.171875 C 7.050781 -3.484375 7.4375 -2.890625 7.78125 -2.390625 C 8.125 -1.898438 8.5 -1.441406 8.90625 -1.015625 C 9.1875 -0.785156 9.488281 -0.648438 9.8125 -0.609375 C 9.832031 -0.609375 9.878906 -0.601562 9.953125 -0.59375 C 10.023438 -0.59375 10.082031 -0.566406 10.125 -0.515625 C 10.175781 -0.460938 10.203125 -0.390625 10.203125 -0.296875 C 10.203125 -0.203125 10.175781 -0.117188 10.125 -0.046875 C 10.082031 0.015625 10.015625 0.046875 9.921875 0.046875 L 9.53125 0.03125 C 9.082031 0.0078125 8.753906 0 8.546875 0 C 8.140625 -0.0820312 7.789062 -0.226562 7.5 -0.4375 C 7.21875 -0.644531 6.9375 -0.941406 6.65625 -1.328125 C 6.351562 -1.710938 5.941406 -2.34375 5.421875 -3.21875 L 5.140625 -3.65625 C 4.992188 -3.882812 4.847656 -4.039062 4.703125 -4.125 C 4.554688 -4.21875 4.3125 -4.265625 3.96875 -4.265625 L 3.53125 -4.265625 L 3.53125 -1.78125 C 3.539062 -1.53125 3.5625 -1.320312 3.59375 -1.15625 C 3.632812 -1 3.722656 -0.867188 3.859375 -0.765625 C 4.003906 -0.660156 4.222656 -0.609375 4.515625 -0.609375 L 4.609375 -0.609375 C 4.703125 -0.609375 4.769531 -0.585938 4.8125 -0.546875 C 4.863281 -0.515625 4.894531 -0.429688 4.90625 -0.296875 C 4.90625 -0.203125 4.878906 -0.117188 4.828125 -0.046875 C 4.785156 0.015625 4.71875 0.046875 4.625 0.046875 C 3.976562 0.015625 3.34375 0 2.71875 0 C 2.1875 0 1.585938 0.015625 0.921875 0.046875 Z M 4.875 -4.859375 C 6.382812 -4.859375 7.140625 -5.566406 7.140625 -6.984375 C 7.140625 -7.566406 6.941406 -8.054688 6.546875 -8.453125 C 6.148438 -8.847656 5.5 -9.046875 4.59375 -9.046875 C 4.300781 -9.046875 4.078125 -9.007812 3.921875 -8.9375 C 3.773438 -8.863281 3.671875 -8.738281 3.609375 -8.5625 C 3.554688 -8.394531 3.53125 -8.132812 3.53125 -7.78125 L 3.53125 -4.859375 Z M 4.875 -4.859375 "/></g></g></g><g fill="#000000" fill-opacity="1"><g transform="translate(282.477694, 206.249986)"><g><path d="M 5.5625 0.296875 C 4.601562 0.296875 3.753906 0.0664062 3.015625 -0.390625 C 2.285156 -0.847656 1.71875 -1.457031 1.3125 -2.21875 C 0.914062 -2.976562 0.71875 -3.796875 0.71875 -4.671875 C 0.71875 -5.734375 0.957031 -6.660156 1.4375 -7.453125 C 1.914062 -8.242188 2.53125 -8.847656 3.28125 -9.265625 C 4.03125 -9.691406 4.789062 -9.90625 5.5625 -9.90625 C 6.539062 -9.90625 7.398438 -9.671875 8.140625 -9.203125 C 8.890625 -8.742188 9.460938 -8.132812 9.859375 -7.375 C 10.265625 -6.625 10.46875 -5.816406 10.46875 -4.953125 C 10.46875 -3.878906 10.222656 -2.941406 9.734375 -2.140625 C 9.253906 -1.347656 8.632812 -0.742188 7.875 -0.328125 C 7.113281 0.0859375 6.34375 0.296875 5.5625 0.296875 Z M 5.5625 -0.359375 C 6.25 -0.359375 6.820312 -0.5625 7.28125 -0.96875 C 7.738281 -1.382812 8.082031 -1.941406 8.3125 -2.640625 C 8.539062 -3.335938 8.65625 -4.109375 8.65625 -4.953125 C 8.65625 -5.734375 8.535156 -6.445312 8.296875 -7.09375 C 8.066406 -7.75 7.71875 -8.269531 7.25 -8.65625 C 6.789062 -9.050781 6.226562 -9.25 5.5625 -9.25 C 4.539062 -9.25 3.773438 -8.820312 3.265625 -7.96875 C 2.753906 -7.113281 2.5 -6.03125 2.5 -4.71875 C 2.5 -3.925781 2.613281 -3.195312 2.84375 -2.53125 C 3.070312 -1.875 3.410156 -1.347656 3.859375 -0.953125 C 4.316406 -0.554688 4.882812 -0.359375 5.5625 -0.359375 Z M 5.578125 -10.53125 C 5.554688 -10.507812 5.515625 -10.5 5.453125 -10.5 C 5.347656 -10.5 5.253906 -10.535156 5.171875 -10.609375 C 5.097656 -10.691406 5.0625 -10.773438 5.0625 -10.859375 C 5.0625 -10.929688 5.085938 -10.992188 5.140625 -11.046875 C 5.191406 -11.097656 5.390625 -11.300781 5.734375 -11.65625 C 6.085938 -12.007812 6.425781 -12.3125 6.75 -12.5625 C 6.914062 -12.675781 7.050781 -12.765625 7.15625 -12.828125 C 7.269531 -12.890625 7.378906 -12.921875 7.484375 -12.921875 C 7.640625 -12.921875 7.773438 -12.847656 7.890625 -12.703125 C 7.984375 -12.597656 8.03125 -12.484375 8.03125 -12.359375 C 8.03125 -12.140625 7.84375 -11.90625 7.46875 -11.65625 C 6.695312 -11.15625 6.066406 -10.78125 5.578125 -10.53125 Z M 5.578125 -10.53125 "/></g></g></g><g fill="#000000" fill-opacity="1"><g transform="translate(303.551484, 206.249986)"><g><path d="M 0.90625 0.046875 C 0.820312 0.046875 0.753906 0.015625 0.703125 -0.046875 C 0.660156 -0.117188 0.640625 -0.203125 0.640625 -0.296875 C 0.648438 -0.441406 0.679688 -0.53125 0.734375 -0.5625 C 0.785156 -0.59375 0.878906 -0.609375 1.015625 -0.609375 C 1.316406 -0.609375 1.535156 -0.660156 1.671875 -0.765625 C 1.816406 -0.867188 1.90625 -1 1.9375 -1.15625 C 1.976562 -1.320312 2.003906 -1.53125 2.015625 -1.78125 L 2.015625 -7.828125 C 2.003906 -8.078125 1.976562 -8.28125 1.9375 -8.4375 C 1.90625 -8.59375 1.816406 -8.722656 1.671875 -8.828125 C 1.535156 -8.941406 1.316406 -9 1.015625 -9 L 0.921875 -9 C 0.828125 -9 0.757812 -9.015625 0.71875 -9.046875 C 0.675781 -9.078125 0.648438 -9.164062 0.640625 -9.3125 C 0.640625 -9.40625 0.660156 -9.484375 0.703125 -9.546875 C 0.753906 -9.617188 0.820312 -9.65625 0.90625 -9.65625 C 1.570312 -9.625 2.171875 -9.609375 2.703125 -9.609375 L 4.859375 -9.609375 C 5.410156 -9.609375 5.859375 -9.566406 6.203125 -9.484375 C 6.554688 -9.398438 6.867188 -9.269531 7.140625 -9.09375 C 7.398438 -8.925781 7.601562 -8.691406 7.75 -8.390625 C 7.90625 -8.085938 7.984375 -7.757812 7.984375 -7.40625 C 7.984375 -6.78125 7.773438 -6.28125 7.359375 -5.90625 C 6.953125 -5.539062 6.476562 -5.289062 5.9375 -5.15625 L 5.9375 -5.109375 C 6.46875 -5.109375 6.945312 -5.003906 7.375 -4.796875 C 7.800781 -4.585938 8.132812 -4.304688 8.375 -3.953125 C 8.613281 -3.609375 8.734375 -3.234375 8.734375 -2.828125 C 8.734375 -2.140625 8.519531 -1.582031 8.09375 -1.15625 C 7.675781 -0.726562 7.148438 -0.425781 6.515625 -0.25 C 5.878906 -0.0703125 5.222656 0.015625 4.546875 0.015625 L 2.71875 0 C 2.175781 0 1.570312 0.015625 0.90625 0.046875 Z M 4.15625 -5.421875 C 4.5625 -5.421875 4.910156 -5.445312 5.203125 -5.5 C 5.503906 -5.5625 5.769531 -5.722656 6 -5.984375 C 6.238281 -6.253906 6.359375 -6.671875 6.359375 -7.234375 C 6.359375 -8.441406 5.765625 -9.046875 4.578125 -9.046875 L 3.515625 -9.046875 L 3.515625 -5.421875 Z M 4.609375 -0.59375 C 5.359375 -0.601562 5.957031 -0.785156 6.40625 -1.140625 C 6.863281 -1.503906 7.09375 -2.097656 7.09375 -2.921875 C 7.039062 -3.472656 6.78125 -3.925781 6.3125 -4.28125 C 5.851562 -4.632812 5.128906 -4.8125 4.140625 -4.8125 L 3.515625 -4.8125 L 3.515625 -1.78125 C 3.515625 -1.4375 3.546875 -1.179688 3.609375 -1.015625 C 3.679688 -0.847656 3.789062 -0.734375 3.9375 -0.671875 C 4.082031 -0.617188 4.304688 -0.59375 4.609375 -0.59375 Z M 4.609375 -0.59375 "/></g></g></g><g clip-path="url(#b13b9c18f3)"><path fill="#000000" d="M 159.976562 238.636719 C 159.789062 237.269531 159.414062 235.859375 159.554688 234.492188 C 159.785156 232.464844 160.265625 230.503906 161.003906 228.605469 C 160.722656 231.574219 160.488281 234.492188 160.210938 237.410156 L 160.816406 237.554688 C 163.292969 235.339844 164.042969 232.230469 165.117188 229.3125 C 165.773438 231.382812 164.136719 235.105469 160.910156 238.636719 Z M 159.976562 238.636719 " fill-opacity="1" fill-rule="nonzero"/></g><g clip-path="url(#3f8c04c94e)"><path fill="#000000" d="M 163.574219 177.847656 C 163.386719 173.796875 165.820312 171.394531 168.765625 169.230469 C 171.710938 167.0625 176.429688 167.015625 179.9375 168.570312 L 176.570312 166.875 C 178.816406 166.734375 182.789062 168.617188 185.21875 171.253906 L 183.023438 169.980469 C 186.527344 173.9375 189.894531 177.988281 195.832031 177.800781 C 196.25 177.820312 196.625 177.960938 196.953125 178.222656 C 200.085938 181.378906 202.140625 185.050781 202.1875 189.664062 C 201.71875 188.207031 201.394531 186.652344 200.691406 185.238281 C 199.785156 183.171875 198.691406 181.210938 197.417969 179.351562 C 196.25 177.800781 194.289062 178.082031 192.605469 178.269531 C 191.671875 178.363281 191.671875 179.210938 192.136719 179.824219 C 192.636719 180.40625 193.183594 180.9375 193.773438 181.425781 C 192.042969 182.320312 192.136719 179.445312 190.5 180.292969 C 190.546875 181.234375 190.640625 182.320312 190.6875 183.449219 L 190.5 183.449219 C 190.265625 182.882812 190.082031 182.273438 189.847656 181.707031 L 189.378906 181.613281 C 189.097656 182.507812 188.679688 183.402344 188.679688 184.34375 C 188.679688 185.285156 189.050781 186.464844 189.332031 187.546875 C 189.691406 188.550781 189.878906 189.585938 189.894531 190.652344 L 188.773438 188.109375 L 188.164062 188.253906 L 188.445312 192.253906 L 188.304688 192.347656 C 188.117188 191.925781 187.976562 191.5 187.789062 191.125 L 187.507812 191.125 C 187.507812 192.726562 187.277344 194.328125 187.554688 195.832031 C 187.945312 197.472656 188.519531 199.042969 189.285156 200.542969 C 189.941406 201.953125 190.59375 203.273438 190.3125 205.109375 L 186.292969 194.183594 L 186.152344 194.183594 L 187.695312 200.496094 L 187.601562 200.589844 C 187.042969 199.363281 186.433594 198.1875 185.875 197.011719 L 185.59375 197.953125 L 184.890625 196.210938 L 180.355469 197.90625 L 181.105469 200.023438 L 180.917969 200.164062 L 180.03125 199.175781 L 179.75 199.363281 C 180.871094 201.105469 181.992188 202.847656 183.070312 204.589844 L 182.929688 204.78125 L 180.125 201.765625 C 180.199219 202.3125 180.230469 202.863281 180.21875 203.414062 C 180.125 205.109375 180.125 206.898438 179.703125 208.5 C 179.28125 210.101562 178.441406 210.242188 177.367188 208.6875 L 178.535156 209.488281 C 180.171875 207.324219 179.890625 204.828125 179.5625 202.472656 C 179.046875 198.800781 177.414062 196.964844 173.90625 195.457031 C 173.625 198.660156 173.296875 201.953125 173.019531 204.921875 C 169.746094 208.027344 165.867188 208.027344 161.753906 208.125 L 157.40625 216.316406 C 157.453125 213.066406 160.488281 210.949219 161.332031 207.839844 L 159.226562 206.097656 C 153.851562 212.691406 148.988281 219.472656 147.496094 228.136719 L 146.980469 228.042969 C 146.933594 227.367188 146.933594 226.691406 146.980469 226.015625 C 147.679688 221.449219 150.066406 217.636719 152.402344 213.820312 C 154.039062 211.136719 155.910156 208.59375 157.730469 205.863281 C 155.394531 204.78125 154.925781 203.085938 154.878906 200.683594 C 154.820312 199.550781 154.976562 198.453125 155.347656 197.382812 C 155.722656 196.316406 156.28125 195.359375 157.03125 194.515625 C 157.597656 193.769531 157.785156 192.9375 157.589844 192.019531 C 157.359375 191.5 156.09375 191.125 155.300781 191.171875 C 152.683594 191.296875 150.082031 191.5625 147.496094 191.972656 C 145.578125 192.347656 143.566406 191.359375 141.699219 192.347656 C 141.558594 192.394531 140.949219 191.925781 140.855469 191.640625 C 140.296875 189.851562 140.109375 188.0625 141.324219 186.464844 C 142.539062 184.863281 144.082031 183.027344 145.390625 181.285156 C 146.699219 179.542969 147.632812 177.894531 148.710938 176.199219 C 148.890625 175.859375 148.953125 175.496094 148.898438 175.113281 C 148.617188 172.808594 149.550781 170.972656 151.1875 169.464844 C 152.359375 168.378906 153.15625 167.058594 153.570312 165.507812 C 153.921875 164.453125 154.40625 163.464844 155.019531 162.542969 C 155.253906 162.117188 155.628906 161.507812 156.003906 161.507812 C 156.375 161.507812 156.75 162.023438 157.125 162.402344 C 159.085938 160.46875 159.132812 156.75 162.921875 155.574219 C 163.339844 155.007812 163.949219 153.832031 165.445312 154.867188 C 166.425781 153.925781 167.363281 152.984375 168.34375 152.136719 C 168.828125 151.855469 169.339844 151.652344 169.886719 151.523438 L 170.167969 153.125 C 170.214844 153.359375 170.214844 153.644531 170.261719 153.925781 L 170.679688 154.019531 C 171.007812 152.984375 171.242188 151.902344 171.617188 150.863281 C 171.882812 150.351562 172.195312 149.863281 172.550781 149.40625 C 173.066406 149.734375 173.765625 150.015625 173.953125 150.488281 C 174.441406 151.800781 174.863281 153.132812 175.214844 154.492188 C 175.589844 153.359375 175.871094 152.277344 176.242188 151.242188 C 176.480469 150.757812 176.761719 150.304688 177.085938 149.875 C 177.613281 150.15625 178.082031 150.519531 178.488281 150.960938 C 180.03125 153.078125 179.375 155.386719 178.816406 157.929688 L 181.804688 157.503906 C 187.460938 156.5625 192.371094 157.882812 196.625 161.976562 C 200.878906 166.074219 204.058594 169.933594 206.253906 175.066406 C 208.171875 179.492188 210.320312 183.730469 212.425781 188.0625 C 215.136719 193.621094 218.738281 198.375 224.019531 201.71875 L 224.53125 202.097656 C 224.578125 202.144531 224.625 202.285156 224.53125 202.660156 C 223.378906 202.179688 222.257812 201.628906 221.167969 201.011719 C 216.773438 198.234375 213.78125 194.183594 211.632812 189.523438 C 209.902344 185.851562 208.40625 182.082031 206.816406 178.363281 C 203.824219 171.488281 199.804688 165.414062 193.632812 160.988281 C 192.480469 160.097656 191.214844 159.421875 189.839844 158.964844 C 188.460938 158.503906 187.042969 158.285156 185.59375 158.304688 C 176.429688 158.585938 168.34375 161.414062 162.59375 168.945312 C 161.285156 170.6875 160.628906 172.996094 160.023438 175.160156 C 159.695312 176.246094 160.117188 177.515625 160.210938 179.117188 C 159.882812 178.410156 159.695312 177.941406 159.414062 177.46875 C 159.164062 176.921875 158.882812 176.386719 158.574219 175.867188 L 156.9375 177.375 C 157.011719 176.929688 157.152344 176.503906 157.359375 176.105469 C 158.058594 175.257812 158.855469 174.503906 159.601562 173.75 L 159.273438 173.371094 L 157.636719 173.84375 L 158.855469 172.523438 L 153.992188 174.503906 L 153.804688 174.078125 L 157.265625 172.429688 L 160.582031 170.925781 L 160.304688 170.359375 L 158.808594 170.972656 L 158.667969 170.828125 L 159.320312 170.21875 C 161.566406 168.191406 163.667969 165.933594 166.144531 164.191406 C 168.890625 162.28125 171.789062 160.648438 174.839844 159.292969 C 178.019531 157.832031 179.234375 155.433594 177.972656 152.136719 C 177.785156 151.710938 177.550781 151.335938 177.226562 150.722656 C 176.242188 152.703125 176.382812 155.007812 174.28125 156.515625 C 173.671875 154.347656 174.839844 151.804688 172.457031 150.113281 C 172.316406 150.863281 172.269531 151.335938 172.128906 151.855469 C 172.101562 152.441406 171.945312 152.988281 171.664062 153.5 C 171.242188 154.066406 170.539062 154.394531 169.980469 154.867188 L 169.089844 152.890625 C 167.269531 153.21875 166.800781 156.46875 163.996094 155.714844 C 163.710938 156.140625 163.398438 156.550781 163.0625 156.9375 C 162.875 157.175781 162.359375 157.503906 162.21875 157.410156 C 160.957031 156.609375 160.722656 157.738281 160.304688 158.445312 C 159.273438 160.234375 158.339844 162.023438 157.265625 163.90625 L 155.910156 162.824219 C 155.335938 163.847656 154.824219 164.898438 154.367188 165.980469 C 153.597656 167.914062 152.476562 169.609375 151 171.066406 C 149.457031 172.570312 149.316406 174.410156 150.253906 175.820312 C 149.691406 176.953125 149.222656 177.894531 148.710938 178.835938 C 148.195312 179.777344 148.007812 179.730469 147.679688 180.199219 C 145.671875 182.742188 143.566406 185.238281 141.792969 187.921875 C 141.230469 188.769531 141.464844 190.136719 141.277344 191.644531 L 149.175781 187.640625 C 149.652344 187.425781 150.152344 187.300781 150.671875 187.261719 C 155.441406 187.40625 160.117188 187.074219 164.648438 185.519531 C 165.058594 185.492188 165.460938 185.507812 165.867188 185.566406 L 165.960938 186.039062 C 165.445312 186.320312 164.882812 186.792969 164.324219 186.886719 C 160.675781 187.40625 157.078125 188.15625 153.429688 188.15625 C 149.785156 188.15625 147.402344 189.570312 144.734375 191.3125 C 146.886719 190.984375 149.035156 190.558594 151.234375 190.371094 C 153.429688 190.183594 156.84375 190.042969 159.695312 190.089844 C 162.546875 190.136719 163.433594 191.925781 162.078125 194.46875 C 161.097656 196.210938 160.070312 197.953125 159.132812 199.695312 C 158.199219 201.4375 159.179688 203.886719 160.257812 205.628906 C 161.332031 207.371094 163.0625 207.324219 164.835938 206.992188 C 165.769531 206.867188 166.703125 206.789062 167.640625 206.757812 C 169.371094 206.757812 170.773438 206.003906 171.289062 204.355469 C 171.972656 202.320312 172.425781 200.230469 172.644531 198.09375 C 172.832031 196.164062 171.847656 194.515625 170.121094 193.480469 C 169.847656 193.269531 169.597656 193.03125 169.371094 192.773438 L 169.511719 192.347656 C 170.28125 192.421875 171.03125 192.59375 171.753906 192.867188 C 173.484375 193.808594 175.167969 194.890625 176.898438 195.925781 C 179.890625 197.8125 184.796875 196.117188 185.96875 192.773438 C 186.464844 191.234375 186.933594 189.679688 187.371094 188.109375 C 187.882812 186.226562 187.414062 184.625 186.292969 184.203125 C 185.171875 183.777344 183.253906 185.050781 182.507812 186.320312 C 181.757812 187.59375 181.480469 187.6875 180.964844 188.394531 L 180.542969 188.109375 C 180.558594 187.933594 180.589844 187.761719 180.636719 187.59375 C 180.683594 187.453125 180.683594 187.308594 180.636719 187.5 C 177.414062 186.652344 173.953125 186.792969 170.960938 184.53125 L 173.390625 184.53125 L 173.203125 183.96875 L 177.691406 183.96875 L 176.242188 185.050781 C 178.347656 184.910156 180.125 185.097656 181.710938 184.671875 C 183.300781 184.25 184.5625 183.261719 185.921875 182.273438 L 182.648438 182.929688 L 182.835938 183.121094 L 189.097656 178.789062 L 188.820312 178.316406 L 187.414062 179.351562 L 187.042969 178.976562 L 189.707031 177.28125 L 189.144531 176.667969 L 188.398438 177.140625 C 188.445312 176.808594 188.445312 176.527344 188.492188 176.054688 L 187.742188 176.621094 C 187.601562 176.199219 187.507812 175.445312 187.277344 175.445312 C 186.597656 175.417969 185.925781 175.480469 185.265625 175.632812 L 186.058594 174.597656 L 183.863281 172.523438 C 182.367188 173.609375 180.964844 174.597656 179.65625 175.679688 C 179.421875 175.820312 179.421875 176.292969 179.328125 176.667969 C 178.953125 177.847656 178.582031 179.023438 178.160156 180.199219 C 177.738281 181.378906 177.039062 181.472656 176.054688 181 C 178.253906 180.011719 178.207031 177.847656 178.816406 176.480469 C 177.644531 175.398438 176.757812 174.644531 175.917969 173.75 C 175.535156 173.324219 175.089844 172.980469 174.578125 172.726562 C 174.070312 172.46875 173.53125 172.3125 172.964844 172.261719 C 172.398438 172.210938 171.839844 172.261719 171.292969 172.421875 C 170.746094 172.582031 170.246094 172.835938 169.792969 173.183594 C 169.371094 173.515625 168.949219 173.9375 168.4375 174.410156 C 169.558594 171.207031 173.578125 170.546875 176.242188 172.902344 C 176.71875 173.40625 177.25 173.847656 177.832031 174.21875 C 178.128906 174.394531 178.445312 174.507812 178.789062 174.550781 C 179.128906 174.59375 179.464844 174.570312 179.796875 174.476562 C 180.125 174.382812 180.425781 174.230469 180.691406 174.011719 C 180.960938 173.796875 181.175781 173.535156 181.339844 173.230469 C 182.132812 171.960938 181.339844 171.253906 180.402344 170.546875 C 176.664062 167.769531 171.710938 167.769531 168.25 170.828125 C 166.832031 172.089844 165.632812 173.535156 164.648438 175.160156 C 163.761719 176.621094 164.648438 177.847656 166.378906 178.082031 C 165.492188 178.835938 165.492188 178.835938 163.714844 178.035156 Z M 158.902344 191.738281 C 158.621094 192.632812 158.480469 193.808594 157.871094 194.703125 C 156.515625 196.773438 155.441406 198.800781 155.535156 201.4375 C 155.628906 203.132812 156.75 204.496094 158.105469 204.214844 C 158.105469 203.597656 158.058594 202.988281 157.964844 202.378906 C 157.359375 199.601562 158.714844 197.527344 160.210938 195.410156 C 160.6875 194.730469 161.09375 194.007812 161.425781 193.242188 C 161.796875 192.160156 160.863281 191.878906 160.164062 191.644531 C 159.460938 191.40625 159.320312 191.691406 158.902344 191.738281 Z M 158.902344 191.738281 " fill-opacity="1" fill-rule="nonzero"/></g><path fill="#000000" d="M 204.757812 190.417969 L 203.03125 187.59375 L 203.261719 187.40625 L 205.695312 190.183594 L 206.019531 189.949219 L 201.8125 184.109375 L 201.953125 183.875 L 206.253906 186.699219 C 206.113281 184.109375 206.207031 181.707031 204.757812 179.542969 L 204.804688 179.542969 C 205.007812 179.496094 205.210938 179.496094 205.414062 179.542969 C 205.757812 180.074219 206.039062 180.636719 206.253906 181.234375 C 206.863281 184.722656 208.59375 187.828125 209.808594 191.125 C 209.855469 191.359375 209.949219 191.640625 209.996094 191.878906 C 210.042969 192.113281 209.949219 192.066406 209.855469 192.347656 L 207.332031 187.214844 L 206.910156 187.453125 L 208.359375 190.984375 L 208.265625 191.078125 L 207.46875 190.042969 L 207.144531 190.277344 L 207.003906 192.253906 L 204.710938 190.371094 Z M 204.757812 190.417969 " fill-opacity="1" fill-rule="nonzero"/><g clip-path="url(#7073b901f6)"><path fill="#000000" d="M 220.933594 204.589844 C 220.699219 205.0625 220.605469 205.296875 220.464844 205.628906 L 224.441406 205.628906 C 219.671875 203.226562 214.34375 201.8125 213.546875 195.410156 C 214.621094 197.8125 215.792969 200.210938 218.410156 201.484375 C 221.027344 202.753906 223.222656 203.886719 225.609375 205.0625 C 223.738281 207.230469 215.558594 208.21875 212.050781 206.429688 C 215.042969 207.039062 217.800781 207.179688 220.511719 206.429688 L 220.511719 206.003906 L 213.828125 206.003906 L 213.828125 205.582031 Z M 220.933594 204.589844 " fill-opacity="1" fill-rule="nonzero"/></g><path fill="#000000" d="M 200.363281 176.761719 L 202.328125 178.976562 L 202.84375 178.550781 L 197.140625 169.183594 C 199.804688 171.253906 201.394531 174.644531 203.261719 178.035156 C 203.449219 176.386719 202.5625 174.878906 198.730469 169.652344 L 201.394531 172.195312 L 201.488281 172.101562 C 201.066406 171.488281 200.691406 170.828125 200.226562 170.125 C 201.71875 170.78125 203.636719 174.125 204.011719 176.433594 C 204.199219 177.515625 204.523438 178.503906 204.804688 179.589844 L 204.757812 179.589844 C 204.433594 179.777344 204.011719 180.199219 203.777344 180.105469 C 202.8125 179.753906 201.949219 179.238281 201.183594 178.554688 C 200.414062 177.871094 199.800781 177.070312 199.335938 176.152344 L 200.363281 176.808594 Z M 200.363281 176.761719 " fill-opacity="1" fill-rule="nonzero"/><path fill="#000000" d="M 191.25 221.683594 C 191.53125 219.847656 191.761719 218.058594 191.996094 216.269531 L 192.371094 216.269531 C 192.230469 218.152344 192.136719 219.988281 191.996094 221.871094 L 192.324219 221.96875 L 193.726562 218.246094 L 194.242188 218.484375 L 192.089844 224.132812 L 191.53125 224.132812 C 191.203125 223.613281 190.59375 223.097656 190.59375 222.578125 C 190.828125 217.117188 189.753906 211.511719 191.578125 206.144531 C 191.796875 205.515625 192.121094 204.953125 192.558594 204.449219 C 190.640625 210.054688 190.96875 215.84375 191.25 221.683594 Z M 191.25 221.683594 " fill-opacity="1" fill-rule="nonzero"/><path fill="#000000" d="M 160.535156 227.523438 C 159.996094 226.617188 159.691406 225.636719 159.625 224.578125 C 159.558594 223.523438 159.738281 222.511719 160.164062 221.542969 L 160.164062 226.441406 C 163.527344 222.910156 162.921875 218.484375 163.246094 213.820312 L 163.996094 215.5625 L 164.183594 213.679688 C 165.773438 216.929688 163.339844 226.0625 160.535156 227.523438 Z M 160.535156 227.523438 " fill-opacity="1" fill-rule="nonzero"/><path fill="#000000" d="M 172.035156 178.882812 C 171.148438 178.550781 169.746094 177.988281 168.390625 177.328125 C 168.15625 177.234375 167.96875 176.527344 168.109375 176.199219 C 168.433594 175.386719 168.914062 174.683594 169.554688 174.089844 C 170.191406 173.496094 170.925781 173.070312 171.753906 172.808594 C 172.066406 172.699219 172.390625 172.644531 172.71875 172.644531 C 173.050781 172.644531 173.371094 172.695312 173.683594 172.804688 C 173.996094 172.910156 174.285156 173.0625 174.546875 173.265625 C 174.808594 173.46875 175.03125 173.707031 175.214844 173.984375 C 175.777344 174.785156 176.242188 176.105469 176.007812 176.953125 C 175.777344 177.800781 174.1875 179.023438 172.035156 178.882812 Z M 172.738281 173.515625 C 171.289062 173.46875 170.121094 174.410156 170.074219 175.585938 C 170.046875 175.953125 170.09375 176.3125 170.21875 176.65625 C 170.34375 177.003906 170.535156 177.308594 170.789062 177.574219 C 171.042969 177.839844 171.339844 178.042969 171.679688 178.179688 C 172.019531 178.316406 172.371094 178.378906 172.738281 178.363281 C 174.1875 178.410156 175.214844 177.515625 175.308594 176.199219 C 175.402344 174.878906 174.375 173.609375 172.738281 173.515625 Z M 172.738281 173.515625 " fill-opacity="1" fill-rule="nonzero"/><path fill="#000000" d="M 174 232.984375 C 174.886719 231.761719 175.824219 230.632812 176.710938 229.40625 C 177.4375 228.421875 177.976562 227.347656 178.328125 226.171875 C 178.683594 225 178.828125 223.804688 178.769531 222.578125 C 178.722656 220.789062 177.925781 219.046875 177.457031 217.257812 C 177.257812 216.277344 177.132812 215.289062 177.085938 214.292969 C 178.113281 217.257812 178.160156 220.554688 180.449219 223.238281 C 182.179688 221.355469 181.757812 219.09375 181.757812 216.976562 C 182.742188 218.578125 182.460938 222.296875 181.105469 223.425781 C 180.777344 223.710938 179.984375 223.378906 179.28125 223.332031 C 179.097656 225.222656 178.589844 227.023438 177.75 228.726562 C 176.914062 230.429688 175.804688 231.929688 174.421875 233.222656 Z M 174 232.984375 " fill-opacity="1" fill-rule="nonzero"/><path fill="#000000" d="M 156.09375 236.234375 C 153.242188 234.585938 152.683594 228.984375 154.085938 225.640625 C 154.085938 226.957031 153.945312 228.605469 154.085938 230.160156 C 154.226562 231.714844 154.644531 233.222656 154.925781 234.726562 L 155.394531 234.726562 C 156.421875 231.007812 157.496094 227.335938 158.574219 223.613281 C 158.945312 227.992188 155.910156 231.667969 156.09375 236.234375 Z M 156.09375 236.234375 " fill-opacity="1" fill-rule="nonzero"/><path fill="#000000" d="M 165.492188 190.699219 L 170.167969 194.75 L 169.886719 195.078125 L 167.875 193.195312 L 166.097656 196.351562 L 165.914062 196.257812 C 166.238281 194.984375 166.519531 193.761719 166.847656 192.488281 L 162.734375 200.070312 L 162.21875 199.835938 C 163.15625 196.871094 166.894531 194.796875 165.070312 190.890625 Z M 165.492188 190.699219 " fill-opacity="1" fill-rule="nonzero"/><path fill="#000000" d="M 188.070312 225.734375 L 186.246094 228.089844 L 186.058594 227.992188 C 187.089844 225.59375 188.117188 223.191406 189.191406 220.789062 L 189.425781 220.789062 C 189.410156 221.304688 189.316406 221.808594 189.144531 222.296875 C 188.210938 224.132812 188.585938 226.015625 188.632812 227.898438 C 188.679688 229.785156 189.191406 229.546875 190.265625 228.792969 C 191.425781 227.914062 192.53125 226.972656 193.585938 225.96875 C 193.257812 227.429688 190.921875 229.640625 189.332031 229.734375 C 188.75 229.628906 188.34375 229.300781 188.117188 228.746094 C 188.03125 227.742188 188.015625 226.738281 188.070312 225.734375 Z M 188.070312 225.734375 " fill-opacity="1" fill-rule="nonzero"/><path fill="#000000" d="M 158.058594 211.324219 C 153.898438 217.445312 149.363281 223.378906 150.578125 231.527344 C 148.195312 227.382812 152.730469 216.457031 158.058594 211.324219 Z M 158.058594 211.324219 " fill-opacity="1" fill-rule="nonzero"/><path fill="#000000" d="M 151.328125 232.324219 C 150.113281 225.78125 153.429688 220.601562 156.328125 215.28125 C 153.992188 220.789062 151.375 226.15625 151.328125 232.324219 Z M 151.328125 232.324219 " fill-opacity="1" fill-rule="nonzero"/><path fill="#000000" d="M 205.085938 199.507812 L 214.996094 201.152344 L 214.902344 201.625 L 207.703125 200.542969 L 207.5625 200.730469 L 210.835938 202.660156 L 210.648438 203.085938 L 204.851562 200.210938 C 204.945312 199.976562 204.992188 199.742188 205.085938 199.507812 Z M 205.085938 199.507812 " fill-opacity="1" fill-rule="nonzero"/><path fill="#000000" d="M 152.964844 216.222656 C 150.90625 220.742188 148.851562 225.308594 149.316406 230.535156 L 148.898438 230.535156 C 148.757812 229.878906 148.476562 229.265625 148.523438 228.605469 C 148.898438 224.132812 150.160156 219.894531 152.964844 216.222656 Z M 152.964844 216.222656 " fill-opacity="1" fill-rule="nonzero"/><path fill="#000000" d="M 186.058594 218.53125 C 184.332031 223.144531 182.789062 227.335938 181.246094 231.527344 C 180.871094 229.359375 183.769531 221.308594 186.058594 218.53125 Z M 186.058594 218.53125 " fill-opacity="1" fill-rule="nonzero"/><path fill="#000000" d="M 208.078125 191.972656 L 210.460938 194.46875 C 211.304688 190.890625 209.246094 188.253906 208.21875 185.378906 C 210.183594 188.394531 212.285156 191.40625 211.070312 195.832031 L 207.75 192.300781 Z M 208.078125 191.972656 " fill-opacity="1" fill-rule="nonzero"/><path fill="#000000" d="M 175.261719 222.910156 C 175.222656 223.410156 175.117188 223.898438 174.933594 224.367188 C 174.28125 225.546875 173.71875 225.546875 172.785156 224.507812 C 170.632812 222.109375 170.351562 219.519531 170.632812 214.527344 C 171.847656 217.824219 170.726562 221.96875 174 224.886719 L 175.308594 222.957031 Z M 175.261719 222.910156 " fill-opacity="1" fill-rule="nonzero"/><path fill="#000000" d="M 168.625 225.308594 C 166.191406 222.015625 164.929688 217.777344 165.539062 215.375 L 166.800781 221.355469 L 167.128906 221.355469 C 167.082031 220.460938 166.988281 219.519531 166.894531 218.578125 L 167.082031 218.578125 Z M 168.625 225.308594 " fill-opacity="1" fill-rule="nonzero"/><path fill="#000000" d="M 156.609375 184.4375 C 161.9375 182.882812 166.472656 182.367188 168.25 186.746094 C 165.023438 182.460938 160.675781 184.4375 156.609375 184.4375 Z M 156.609375 184.4375 " fill-opacity="1" fill-rule="nonzero"/><path fill="#000000" d="M 197.746094 176.714844 L 195.550781 173.890625 L 195.691406 173.703125 L 196.578125 174.21875 L 196.71875 173.984375 L 193.351562 170.21875 C 196.53125 172.335938 198.214844 175.679688 200.363281 179.023438 L 198.914062 178.082031 Z M 197.746094 176.714844 " fill-opacity="1" fill-rule="nonzero"/><path fill="#000000" d="M 173.859375 228.136719 C 173.578125 230.488281 173.34375 232.796875 173.019531 235.433594 C 171.429688 233.550781 171.289062 229.03125 172.363281 227.148438 L 172.363281 233.269531 L 172.644531 233.269531 C 172.972656 231.480469 173.25 229.734375 173.578125 227.992188 Z M 173.859375 228.136719 " fill-opacity="1" fill-rule="nonzero"/><path fill="#000000" d="M 165.117188 234.019531 C 166.988281 230.535156 166.519531 227.050781 165.820312 223.472656 C 168.015625 226.535156 167.6875 233.171875 165.117188 234.019531 Z M 165.117188 234.019531 " fill-opacity="1" fill-rule="nonzero"/><path fill="#000000" d="M 175.308594 222.957031 C 175.449219 222.304688 175.542969 221.644531 175.589844 220.976562 C 175.636719 218.859375 175.683594 216.789062 175.636719 214.714844 C 175.589844 213.726562 175.355469 212.785156 175.261719 211.796875 C 176.476562 213.960938 175.824219 216.316406 176.007812 218.625 C 176.195312 220.929688 176.382812 223.332031 176.570312 225.96875 L 175.261719 222.910156 Z M 175.308594 222.957031 " fill-opacity="1" fill-rule="nonzero"/><path fill="#000000" d="M 202.515625 200.871094 C 205.507812 202.097656 210.273438 206.285156 212.144531 208.972656 Z M 202.515625 200.871094 " fill-opacity="1" fill-rule="nonzero"/><path fill="#000000" d="M 200.269531 211.183594 L 198.496094 209.722656 C 198.402344 211.417969 198.308594 213.019531 198.214844 214.574219 L 197.980469 214.574219 C 197.839844 213.160156 197.839844 211.703125 197.558594 210.289062 C 197.195312 208.839844 196.761719 207.410156 196.25 206.003906 L 200.503906 210.996094 Z M 200.269531 211.183594 " fill-opacity="1" fill-rule="nonzero"/><path fill="#000000" d="M 186.714844 218.011719 C 188.023438 217.824219 189.285156 216.316406 189.425781 214.480469 C 189.542969 212.957031 189.542969 211.433594 189.425781 209.914062 C 189.386719 209.488281 189.371094 209.066406 189.378906 208.640625 C 190.546875 210.148438 190.453125 211.984375 190.175781 213.585938 C 189.894531 215.1875 188.910156 216.789062 188.117188 218.292969 C 187.324219 219.800781 187.042969 218.953125 186.714844 218.058594 Z M 186.714844 218.011719 " fill-opacity="1" fill-rule="nonzero"/><path fill="#000000" d="M 179.328125 216.503906 C 179.46875 217.117188 179.609375 217.636719 179.75 218.152344 L 179.1875 218.339844 L 177.226562 212.03125 L 177.550781 211.84375 L 180.683594 217.164062 Z M 179.328125 216.503906 " fill-opacity="1" fill-rule="nonzero"/><path fill="#000000" d="M 205.460938 208.21875 C 201.488281 207.652344 199.710938 204.640625 198.355469 201.152344 C 198.867188 201.71875 199.710938 202.238281 199.898438 202.894531 C 200.644531 205.535156 202.609375 206.757812 204.804688 207.839844 Z M 205.460938 208.21875 " fill-opacity="1" fill-rule="nonzero"/><path fill="#000000" d="M 203.636719 223.097656 C 204.246094 221.496094 204.898438 219.941406 205.507812 218.386719 L 205.789062 218.484375 C 205.179688 220.367188 204.523438 222.25 203.871094 224.132812 L 203.261719 224.226562 C 202.28125 222.671875 201.253906 221.121094 200.269531 219.519531 L 200.832031 219.1875 L 203.121094 223.050781 Z M 203.636719 223.097656 " fill-opacity="1" fill-rule="nonzero"/><path fill="#000000" d="M 196.4375 226.769531 C 196.109375 225.027344 195.785156 223.378906 195.457031 221.777344 L 195.878906 221.683594 C 196.0625 222.957031 196.296875 224.226562 196.578125 226.109375 L 200.457031 221.871094 C 200.363281 223.191406 198.777344 225.355469 196.4375 226.769531 Z M 196.4375 226.769531 " fill-opacity="1" fill-rule="nonzero"/><path fill="#000000" d="M 178.535156 195.832031 C 182.976562 196.070312 184.796875 193.289062 185.921875 189.570312 C 185.359375 194.46875 183.300781 196.257812 178.535156 195.832031 Z M 178.535156 195.832031 " fill-opacity="1" fill-rule="nonzero"/><path fill="#000000" d="M 200.363281 176.761719 L 195.457031 169.558594 C 195.148438 169.175781 194.914062 168.753906 194.753906 168.289062 C 195.269531 168.570312 195.722656 168.929688 196.109375 169.371094 C 197.464844 171.253906 198.820312 173.183594 200.132812 175.160156 C 200.363281 175.585938 200.269531 176.246094 200.363281 176.761719 Z M 200.363281 176.761719 " fill-opacity="1" fill-rule="nonzero"/><path fill="#000000" d="M 188.679688 194.230469 C 189.753906 196.964844 190.921875 199.929688 191.996094 202.566406 C 189.894531 200.730469 188.257812 196.679688 188.679688 194.230469 Z M 188.679688 194.230469 " fill-opacity="1" fill-rule="nonzero"/><path fill="#000000" d="M 213.640625 200.023438 L 212.144531 200.308594 L 212.378906 199.835938 C 211.734375 199.320312 211.046875 198.867188 210.320312 198.46875 C 209.433594 198 208.453125 197.71875 207.5625 197.246094 C 209.902344 196.964844 212.707031 198.234375 213.640625 200.023438 Z M 213.640625 200.023438 " fill-opacity="1" fill-rule="nonzero"/><path fill="#000000" d="M 217.988281 210.664062 L 217.007812 209.160156 L 217.289062 208.972656 L 219.8125 211.890625 C 217.613281 211.84375 214.808594 209.867188 214.109375 207.839844 L 217.753906 210.902344 Z M 217.988281 210.664062 " fill-opacity="1" fill-rule="nonzero"/><path fill="#000000" d="M 193.773438 166.496094 L 186.480469 161.367188 C 189.660156 161.789062 191.625 164.332031 193.773438 166.496094 Z M 193.773438 166.496094 " fill-opacity="1" fill-rule="nonzero"/><path fill="#000000" d="M 183.769531 162.214844 C 186.691406 163.421875 189.089844 165.304688 190.96875 167.863281 Z M 183.769531 162.214844 " fill-opacity="1" fill-rule="nonzero"/><path fill="#000000" d="M 218.828125 203.980469 L 214.574219 203.460938 L 214.574219 203.179688 L 217.941406 203.414062 L 217.941406 202.992188 L 212.660156 202.285156 C 214.574219 201.34375 217.613281 202.050781 218.828125 203.980469 Z M 218.828125 203.980469 " fill-opacity="1" fill-rule="nonzero"/><path fill="#000000" d="M 195.175781 194.984375 C 193.074219 192.960938 191.855469 190.464844 191.34375 187.261719 C 192.746094 190.042969 193.960938 192.539062 195.175781 194.984375 Z M 195.175781 194.984375 " fill-opacity="1" fill-rule="nonzero"/><path fill="#000000" d="M 203.589844 199.789062 L 210.089844 204.449219 C 208.746094 204.125 207.515625 203.558594 206.390625 202.753906 C 205.269531 201.945312 204.335938 200.957031 203.589844 199.789062 Z M 203.589844 199.789062 " fill-opacity="1" fill-rule="nonzero"/><path fill="#000000" d="M 191.625 162.355469 L 197.511719 167.441406 L 197.09375 167.957031 L 191.203125 162.777344 Z M 191.625 162.355469 " fill-opacity="1" fill-rule="nonzero"/><path fill="#000000" d="M 162.921875 188.722656 C 163.109375 189.382812 163.246094 190.183594 163.527344 190.9375 C 164.183594 192.585938 163.902344 194.042969 162.171875 195.832031 C 163.386719 193.480469 164.464844 191.171875 161.003906 189.382812 L 161.984375 189.003906 Z M 162.921875 188.722656 " fill-opacity="1" fill-rule="nonzero"/><path fill="#000000" d="M 157.359375 234.210938 L 158.480469 228.417969 L 159.132812 228.558594 C 158.808594 230.488281 158.527344 232.421875 158.199219 234.351562 Z M 157.359375 234.210938 " fill-opacity="1" fill-rule="nonzero"/><path fill="#000000" d="M 193.726562 185.804688 C 194.566406 184.863281 194.753906 185.851562 195.128906 186.273438 C 195.636719 187.066406 196.199219 187.820312 196.8125 188.535156 C 197.464844 189.195312 198.261719 189.710938 199.242188 190.558594 C 196.53125 189.570312 195.035156 187.78125 193.679688 185.757812 Z M 193.726562 185.804688 " fill-opacity="1" fill-rule="nonzero"/><path fill="#000000" d="M 195.269531 211.5625 C 195.832031 214.007812 196.203125 216.457031 194.660156 219.1875 C 194.894531 216.363281 195.082031 213.960938 195.269531 211.5625 Z M 195.269531 211.5625 " fill-opacity="1" fill-rule="nonzero"/><path fill="#000000" d="M 175.917969 205.0625 C 176.335938 200.164062 176.335938 200.164062 175.308594 197.953125 C 177.132812 198.707031 177.457031 201.296875 175.917969 205.0625 Z M 175.917969 205.0625 " fill-opacity="1" fill-rule="nonzero"/><path fill="#000000" d="M 182.507812 206.050781 C 182.976562 209.207031 183.394531 212.3125 183.863281 215.46875 L 183.441406 215.46875 C 182.976562 212.359375 182.507812 209.207031 182.085938 206.050781 Z M 182.507812 206.050781 " fill-opacity="1" fill-rule="nonzero"/><path fill="#000000" d="M 181.710938 224.273438 L 179.375 231.855469 L 178.90625 231.761719 C 179.703125 229.171875 180.449219 226.628906 181.246094 224.085938 Z M 181.710938 224.273438 " fill-opacity="1" fill-rule="nonzero"/><path fill="#000000" d="M 154.832031 179.683594 C 153.757812 181.519531 151.933594 181.941406 150.484375 180.859375 Z M 154.832031 179.683594 " fill-opacity="1" fill-rule="nonzero"/><path fill="#000000" d="M 186.714844 218.058594 C 186.386719 217.492188 185.875 216.976562 185.734375 216.410156 C 185.152344 214.277344 184.765625 212.113281 184.5625 209.914062 C 185.265625 212.644531 186.011719 215.328125 186.714844 218.011719 Z M 186.714844 218.058594 " fill-opacity="1" fill-rule="nonzero"/><path fill="#000000" d="M 173.25 179.917969 C 170.445312 181.1875 168.25 180.484375 167.875 178.128906 C 169.371094 179.964844 171.195312 180.246094 173.25 179.917969 Z M 173.25 179.917969 " fill-opacity="1" fill-rule="nonzero"/><path fill="#000000" d="M 163.574219 196.023438 C 162.59375 197.859375 161.660156 199.742188 160.628906 201.625 C 160.394531 199.082031 161.890625 197.480469 163.574219 196.023438 Z M 163.574219 196.023438 " fill-opacity="1" fill-rule="nonzero"/><path fill="#000000" d="M 204.757812 190.417969 L 204.710938 190.417969 C 205.226562 191.878906 205.742188 193.386719 206.207031 194.84375 L 205.835938 194.984375 L 203.121094 188.628906 Z M 204.757812 190.417969 " fill-opacity="1" fill-rule="nonzero"/><path fill="#000000" d="M 193.492188 189.003906 L 197.511719 195.316406 L 197.1875 195.550781 L 193.117188 189.289062 Z M 193.492188 189.003906 " fill-opacity="1" fill-rule="nonzero"/><path fill="#000000" d="M 189.941406 185.566406 L 191.949219 191.691406 L 191.4375 191.878906 C 190.734375 189.851562 190.082031 187.78125 189.378906 185.757812 Z M 189.941406 185.566406 " fill-opacity="1" fill-rule="nonzero"/><path fill="#000000" d="M 161.566406 214.386719 C 162.59375 212.691406 163.574219 211.042969 164.648438 209.160156 C 164.371094 211.511719 163.527344 213.304688 161.566406 214.386719 Z M 161.566406 214.386719 " fill-opacity="1" fill-rule="nonzero"/><path fill="#000000" d="M 174.234375 203.695312 L 175.824219 210.617188 C 174.652344 209.300781 173.8125 206.050781 174.234375 203.695312 Z M 174.234375 203.695312 " fill-opacity="1" fill-rule="nonzero"/><path fill="#000000" d="M 187.835938 215.515625 C 188.070312 213.585938 188.257812 211.703125 188.492188 209.675781 C 188.859375 210.644531 188.984375 211.644531 188.867188 212.675781 C 188.753906 213.707031 188.410156 214.652344 187.835938 215.515625 Z M 187.835938 215.515625 " fill-opacity="1" fill-rule="nonzero"/><path fill="#000000" d="M 199.851562 198.421875 C 201.066406 200.070312 201.953125 201.765625 201.019531 204.167969 Z M 199.851562 198.421875 " fill-opacity="1" fill-rule="nonzero"/><path fill="#000000" d="M 185.3125 168.804688 L 179 164.898438 C 181.574219 165.273438 183.441406 167.109375 185.3125 168.804688 Z M 185.3125 168.804688 " fill-opacity="1" fill-rule="nonzero"/><path fill="#000000" d="M 193.304688 161.976562 L 187.136719 159.90625 L 187.277344 159.480469 L 193.539062 161.460938 Z M 193.304688 161.976562 " fill-opacity="1" fill-rule="nonzero"/><path fill="#000000" d="M 158.433594 208.972656 L 154.691406 213.632812 L 154.273438 213.304688 L 157.964844 208.640625 Z M 158.433594 208.972656 " fill-opacity="1" fill-rule="nonzero"/><path fill="#000000" d="M 190.734375 197.765625 C 191.902344 199.648438 193.117188 201.484375 194.382812 203.414062 C 192.324219 202.050781 191.4375 199.976562 190.734375 197.765625 Z M 190.734375 197.765625 " fill-opacity="1" fill-rule="nonzero"/><path fill="#000000" d="M 197.746094 176.714844 L 198.914062 178.082031 C 198.402344 177.847656 197.746094 177.75 197.328125 177.375 C 196.3125 176.589844 195.46875 175.648438 194.800781 174.550781 Z M 197.746094 176.714844 " fill-opacity="1" fill-rule="nonzero"/><path fill="#000000" d="M 158.574219 214.902344 C 159.648438 213.066406 160.722656 211.183594 161.753906 209.300781 L 162.21875 209.582031 L 158.992188 215.1875 Z M 158.574219 214.902344 " fill-opacity="1" fill-rule="nonzero"/><path fill="#000000" d="M 155.441406 224.699219 C 155.253906 226.722656 155.019531 228.792969 154.832031 230.820312 L 154.414062 230.820312 C 154.601562 228.792969 154.738281 226.769531 154.878906 224.746094 Z M 155.441406 224.699219 " fill-opacity="1" fill-rule="nonzero"/><path fill="#000000" d="M 193.679688 185.757812 L 193.679688 187.121094 L 193.351562 187.261719 L 191.53125 182.414062 L 191.949219 182.179688 C 192.511719 183.402344 193.117188 184.578125 193.726562 185.804688 Z M 193.679688 185.757812 " fill-opacity="1" fill-rule="nonzero"/><path fill="#000000" d="M 201.953125 215.046875 L 201.113281 216.976562 L 200.738281 216.976562 C 200.457031 215.84375 200.226562 214.714844 199.945312 213.585938 L 200.132812 213.445312 L 201.394531 215.234375 Z M 201.953125 215.046875 " fill-opacity="1" fill-rule="nonzero"/><path fill="#000000" d="M 204.945312 183.921875 L 202.9375 181.613281 L 204.105469 182.273438 C 203.875 181.8125 203.675781 181.339844 203.496094 180.859375 L 203.824219 180.71875 L 205.414062 183.824219 C 205.414062 183.875 205.226562 184.015625 205.085938 184.109375 L 204.898438 183.875 Z M 204.945312 183.921875 " fill-opacity="1" fill-rule="nonzero"/><path fill="#000000" d="M 198.867188 203.792969 C 199.148438 205.109375 199.476562 206.429688 199.804688 207.699219 L 199.242188 207.839844 C 198.914062 206.570312 198.542969 205.25 198.167969 203.980469 Z M 198.867188 203.792969 " fill-opacity="1" fill-rule="nonzero"/><path fill="#000000" d="M 172.550781 215.046875 C 172.691406 216.835938 174.1875 218.292969 173.34375 220.695312 C 172.878906 218.578125 172.457031 216.882812 172.082031 215.140625 Z M 172.550781 215.046875 " fill-opacity="1" fill-rule="nonzero"/><path fill="#000000" d="M 186.292969 224.886719 L 183.769531 229.738281 L 183.300781 229.546875 L 185.828125 224.699219 Z M 186.292969 224.886719 " fill-opacity="1" fill-rule="nonzero"/><path fill="#000000" d="M 156.9375 216.976562 C 156.375 218.671875 155.910156 220.175781 155.441406 221.636719 C 155.300781 219.941406 155.160156 218.246094 156.9375 216.976562 Z M 156.9375 216.976562 " fill-opacity="1" fill-rule="nonzero"/><path fill="#000000" d="M 198.027344 166.96875 L 193.351562 163.011719 L 193.585938 162.730469 L 198.308594 166.640625 Z M 198.027344 166.96875 " fill-opacity="1" fill-rule="nonzero"/><path fill="#000000" d="M 168.4375 231.949219 C 168.8125 230.253906 169.136719 228.605469 169.511719 226.957031 L 169.839844 226.957031 C 169.558594 228.652344 169.324219 230.300781 169.042969 231.996094 Z M 168.4375 231.949219 " fill-opacity="1" fill-rule="nonzero"/><path fill="#000000" d="M 194.800781 183.875 L 197.605469 187.6875 L 197.234375 187.96875 L 194.335938 184.25 Z M 194.800781 183.875 " fill-opacity="1" fill-rule="nonzero"/><path fill="#000000" d="M 168.296875 234.867188 C 168.996094 233.410156 169.746094 231.949219 170.445312 230.441406 L 170.867188 230.632812 C 170.214844 232.136719 169.511719 233.644531 168.859375 235.105469 Z M 168.296875 234.867188 " fill-opacity="1" fill-rule="nonzero"/><path fill="#000000" d="M 183.070312 163.058594 L 187.929688 166.261719 L 187.695312 166.640625 L 182.835938 163.4375 C 182.886719 163.292969 182.964844 163.167969 183.070312 163.058594 Z M 183.070312 163.058594 " fill-opacity="1" fill-rule="nonzero"/><path fill="#000000" d="M 205.460938 215.28125 L 203.03125 217.824219 L 202.5625 217.539062 C 202.75 216.738281 202.9375 215.941406 203.167969 215.140625 L 203.402344 215.140625 L 203.03125 217.210938 L 205.039062 214.855469 Z M 205.460938 215.28125 " fill-opacity="1" fill-rule="nonzero"/><path fill="#000000" d="M 215.652344 213.019531 C 213.78125 213.160156 212.707031 212.3125 212.285156 210.523438 Z M 215.652344 213.019531 " fill-opacity="1" fill-rule="nonzero"/><path fill="#000000" d="M 204.945312 183.921875 L 204.898438 183.921875 C 204.898438 184.15625 204.851562 184.4375 204.804688 184.863281 L 200.878906 182.082031 L 201.066406 181.800781 Z M 204.945312 183.921875 " fill-opacity="1" fill-rule="nonzero"/><path fill="#000000" d="M 155.582031 228.9375 L 156.65625 223.660156 L 157.125 223.804688 L 155.863281 228.984375 Z M 155.582031 228.9375 " fill-opacity="1" fill-rule="nonzero"/><path fill="#000000" d="M 160.863281 177.941406 C 160.070312 176.761719 160.210938 175.113281 161.378906 173.5625 C 161.238281 175.066406 161.050781 176.621094 160.863281 177.941406 Z M 160.863281 177.941406 " fill-opacity="1" fill-rule="nonzero"/><path fill="#000000" d="M 163.855469 173.515625 C 163.386719 174.878906 162.96875 176.292969 162.546875 177.703125 L 162.078125 177.5625 L 163.339844 173.324219 Z M 163.855469 173.515625 " fill-opacity="1" fill-rule="nonzero"/><path fill="#000000" d="M 206.019531 198.800781 L 203.917969 198.660156 C 206.207031 197.621094 204.011719 196.164062 204.617188 194.65625 C 205.085938 196.117188 205.507812 197.292969 206.019531 198.800781 Z M 206.019531 198.800781 " fill-opacity="1" fill-rule="nonzero"/><path fill="#000000" d="M 199.523438 195.597656 C 198.683594 194.75 197.746094 193.902344 196.765625 193.007812 L 197.234375 192.539062 Z M 199.523438 195.597656 " fill-opacity="1" fill-rule="nonzero"/><path fill="#000000" d="M 167.222656 184.015625 L 163.433594 182.460938 C 165.023438 182.132812 166.238281 182.976562 167.222656 184.015625 Z M 167.222656 184.015625 " fill-opacity="1" fill-rule="nonzero"/><path fill="#000000" d="M 169.605469 188.582031 C 167.96875 189.851562 166.566406 188.863281 165.210938 188.300781 Z M 169.605469 188.582031 " fill-opacity="1" fill-rule="nonzero"/><path fill="#000000" d="M 164.136719 194.984375 L 164.136719 190.699219 C 165.257812 192.066406 165.304688 193.148438 164.136719 194.984375 Z M 164.136719 194.984375 " fill-opacity="1" fill-rule="nonzero"/><path fill="#000000" d="M 163.574219 177.847656 L 163.714844 178.035156 C 163.589844 178.230469 163.480469 178.433594 163.386719 178.644531 L 163.15625 178.550781 Z M 163.574219 177.847656 " fill-opacity="1" fill-rule="nonzero"/><path fill="#000000" d="M 172.457031 174.171875 C 172.597656 175.492188 172.972656 176.339844 174.328125 175.445312 C 175.167969 176.480469 174.5625 177.09375 173.765625 177.609375 C 173.527344 177.730469 173.277344 177.800781 173.011719 177.816406 C 172.746094 177.832031 172.488281 177.796875 172.234375 177.710938 C 171.984375 177.621094 171.761719 177.484375 171.5625 177.304688 C 171.367188 177.125 171.210938 176.914062 171.101562 176.667969 C 170.632812 175.539062 170.914062 174.644531 172.457031 174.171875 Z M 172.457031 174.171875 " fill-opacity="1" fill-rule="nonzero"/><g fill="#000000" fill-opacity="1"><g transform="translate(60.322292, 206.032722)"><g><path d="M 0.9375 0.046875 C 0.851562 0.046875 0.785156 0.015625 0.734375 -0.046875 C 0.691406 -0.117188 0.671875 -0.195312 0.671875 -0.28125 C 0.679688 -0.4375 0.707031 -0.53125 0.75 -0.5625 C 0.800781 -0.59375 0.898438 -0.609375 1.046875 -0.609375 C 1.335938 -0.609375 1.550781 -0.660156 1.6875 -0.765625 C 1.832031 -0.867188 1.914062 -0.992188 1.9375 -1.140625 C 1.96875 -1.285156 1.988281 -1.5 2 -1.78125 L 2.03125 -7.8125 C 2.03125 -8.113281 2 -8.34375 1.9375 -8.5 C 1.875 -8.65625 1.769531 -8.769531 1.625 -8.84375 C 1.476562 -8.914062 1.273438 -8.972656 1.015625 -9.015625 C 0.847656 -9.046875 0.742188 -9.078125 0.703125 -9.109375 C 0.660156 -9.140625 0.640625 -9.226562 0.640625 -9.375 C 0.640625 -9.488281 0.671875 -9.566406 0.734375 -9.609375 C 0.796875 -9.648438 0.898438 -9.671875 1.046875 -9.671875 C 1.671875 -9.671875 2.164062 -9.628906 2.53125 -9.546875 C 2.894531 -9.460938 3.21875 -9.304688 3.5 -9.078125 C 3.78125 -8.859375 4.085938 -8.519531 4.421875 -8.0625 L 8.578125 -2.59375 L 8.625 -2.59375 L 8.59375 -7.8125 C 8.582031 -8.082031 8.5625 -8.289062 8.53125 -8.4375 C 8.5 -8.582031 8.414062 -8.707031 8.28125 -8.8125 C 8.144531 -8.914062 7.929688 -8.96875 7.640625 -8.96875 L 7.546875 -8.96875 C 7.441406 -8.96875 7.367188 -8.984375 7.328125 -9.015625 C 7.285156 -9.054688 7.257812 -9.148438 7.25 -9.296875 C 7.25 -9.390625 7.269531 -9.46875 7.3125 -9.53125 C 7.363281 -9.59375 7.429688 -9.625 7.515625 -9.625 C 8.160156 -9.59375 8.644531 -9.578125 8.96875 -9.578125 C 9.164062 -9.578125 9.535156 -9.585938 10.078125 -9.609375 L 10.40625 -9.625 C 10.5 -9.625 10.566406 -9.59375 10.609375 -9.53125 C 10.648438 -9.46875 10.671875 -9.390625 10.671875 -9.296875 C 10.660156 -9.140625 10.628906 -9.046875 10.578125 -9.015625 C 10.535156 -8.984375 10.441406 -8.96875 10.296875 -8.96875 C 10.003906 -8.96875 9.789062 -8.914062 9.65625 -8.8125 C 9.519531 -8.707031 9.4375 -8.582031 9.40625 -8.4375 C 9.375 -8.289062 9.351562 -8.082031 9.34375 -7.8125 L 9.3125 -0.15625 C 9.300781 -0.0195312 9.175781 0.046875 8.9375 0.046875 C 8.738281 0.046875 8.585938 -0.0195312 8.484375 -0.15625 L 2.765625 -7.8125 L 2.71875 -7.8125 L 2.75 -1.78125 C 2.757812 -1.5 2.78125 -1.285156 2.8125 -1.140625 C 2.84375 -0.992188 2.925781 -0.867188 3.0625 -0.765625 C 3.195312 -0.660156 3.410156 -0.609375 3.703125 -0.609375 L 3.796875 -0.609375 C 3.898438 -0.609375 3.972656 -0.585938 4.015625 -0.546875 C 4.054688 -0.515625 4.082031 -0.425781 4.09375 -0.28125 C 4.09375 -0.195312 4.070312 -0.117188 4.03125 -0.046875 C 3.988281 0.015625 3.921875 0.046875 3.828125 0.046875 C 3.179688 0.015625 2.691406 0 2.359375 0 C 2.148438 0 1.796875 0.0078125 1.296875 0.03125 Z M 0.9375 0.046875 "/></g></g></g><g fill="#000000" fill-opacity="1"><g transform="translate(83.675427, 206.032722)"><g><path d="M 0.09375 0.046875 C 0 0.046875 -0.0664062 0.015625 -0.109375 -0.046875 C -0.160156 -0.117188 -0.1875 -0.195312 -0.1875 -0.28125 C -0.175781 -0.4375 -0.144531 -0.53125 -0.09375 -0.5625 C -0.0390625 -0.59375 0.0195312 -0.609375 0.09375 -0.609375 C 0.164062 -0.609375 0.210938 -0.609375 0.234375 -0.609375 C 0.535156 -0.609375 0.753906 -0.6875 0.890625 -0.84375 C 1.035156 -1 1.148438 -1.175781 1.234375 -1.375 C 1.316406 -1.570312 1.375 -1.707031 1.40625 -1.78125 L 4.0625 -8.0625 C 4.125 -8.21875 4.15625 -8.335938 4.15625 -8.421875 C 4.15625 -8.609375 4.082031 -8.742188 3.9375 -8.828125 C 3.800781 -8.910156 3.609375 -8.972656 3.359375 -9.015625 C 3.179688 -9.046875 3.070312 -9.078125 3.03125 -9.109375 C 3 -9.140625 2.984375 -9.226562 2.984375 -9.375 C 2.984375 -9.488281 3.015625 -9.566406 3.078125 -9.609375 C 3.140625 -9.648438 3.242188 -9.671875 3.390625 -9.671875 C 3.890625 -9.671875 4.289062 -9.632812 4.59375 -9.5625 C 4.894531 -9.488281 5.15625 -9.335938 5.375 -9.109375 C 5.59375 -8.878906 5.800781 -8.53125 6 -8.0625 L 8.546875 -1.78125 C 8.703125 -1.394531 8.847656 -1.101562 8.984375 -0.90625 C 9.128906 -0.71875 9.34375 -0.617188 9.625 -0.609375 L 9.71875 -0.609375 C 9.820312 -0.609375 9.894531 -0.585938 9.9375 -0.546875 C 9.976562 -0.515625 10.003906 -0.425781 10.015625 -0.28125 C 10.015625 -0.195312 9.988281 -0.117188 9.9375 -0.046875 C 9.894531 0.015625 9.828125 0.046875 9.734375 0.046875 C 9.085938 0.015625 8.53125 0 8.0625 0 C 7.457031 0 6.832031 0.015625 6.1875 0.046875 C 6.09375 0.046875 6.019531 0.015625 5.96875 -0.046875 C 5.925781 -0.117188 5.90625 -0.195312 5.90625 -0.28125 C 5.914062 -0.425781 5.941406 -0.515625 5.984375 -0.546875 C 6.023438 -0.585938 6.097656 -0.609375 6.203125 -0.609375 C 6.546875 -0.609375 6.785156 -0.640625 6.921875 -0.703125 C 7.066406 -0.773438 7.140625 -0.894531 7.140625 -1.0625 C 7.140625 -1.195312 7.078125 -1.4375 6.953125 -1.78125 L 6.4375 -3.03125 L 2.6875 -3.03125 C 2.4375 -2.40625 2.289062 -2.039062 2.25 -1.9375 C 2.21875 -1.84375 2.203125 -1.789062 2.203125 -1.78125 C 2.078125 -1.394531 2.015625 -1.144531 2.015625 -1.03125 C 2.015625 -0.863281 2.085938 -0.75 2.234375 -0.6875 C 2.390625 -0.632812 2.679688 -0.609375 3.109375 -0.609375 L 3.203125 -0.609375 C 3.304688 -0.609375 3.378906 -0.585938 3.421875 -0.546875 C 3.460938 -0.515625 3.488281 -0.425781 3.5 -0.28125 C 3.5 -0.195312 3.472656 -0.117188 3.421875 -0.046875 C 3.378906 0.015625 3.3125 0.046875 3.21875 0.046875 C 2.570312 0.015625 2.019531 0 1.5625 0 C 1.238281 0 0.75 0.015625 0.09375 0.046875 Z M 2.984375 -3.6875 L 6.171875 -3.6875 L 4.625 -7.59375 L 4.59375 -7.59375 Z M 2.984375 -3.6875 "/></g></g></g><g fill="#000000" fill-opacity="1"><g transform="translate(105.752799, 206.032722)"><g><path d="M 4.03125 0.296875 C 2.96875 0.296875 2.15625 0.113281 1.59375 -0.25 C 1.03125 -0.625 0.75 -1.171875 0.75 -1.890625 C 0.75 -2.253906 0.867188 -2.550781 1.109375 -2.78125 C 1.359375 -3.019531 1.679688 -3.140625 2.078125 -3.140625 C 2.316406 -3.128906 2.492188 -3.070312 2.609375 -2.96875 C 2.734375 -2.863281 2.796875 -2.765625 2.796875 -2.671875 C 2.796875 -2.660156 2.742188 -2.625 2.640625 -2.5625 C 2.535156 -2.5 2.441406 -2.40625 2.359375 -2.28125 C 2.285156 -2.164062 2.25 -2.003906 2.25 -1.796875 C 2.25 -1.316406 2.390625 -0.945312 2.671875 -0.6875 C 2.960938 -0.425781 3.414062 -0.296875 4.03125 -0.296875 C 4.4375 -0.296875 4.796875 -0.378906 5.109375 -0.546875 C 5.429688 -0.710938 5.675781 -0.925781 5.84375 -1.1875 C 6.007812 -1.457031 6.09375 -1.738281 6.09375 -2.03125 C 6.09375 -2.394531 5.988281 -2.707031 5.78125 -2.96875 C 5.570312 -3.238281 5.316406 -3.460938 5.015625 -3.640625 C 4.710938 -3.816406 4.296875 -4.019531 3.765625 -4.25 C 3.160156 -4.519531 2.671875 -4.765625 2.296875 -4.984375 C 1.921875 -5.210938 1.597656 -5.507812 1.328125 -5.875 C 1.066406 -6.25 0.9375 -6.710938 0.9375 -7.265625 C 0.9375 -8.140625 1.238281 -8.796875 1.84375 -9.234375 C 2.445312 -9.671875 3.238281 -9.890625 4.21875 -9.890625 C 4.988281 -9.890625 5.660156 -9.726562 6.234375 -9.40625 C 6.804688 -9.082031 7.09375 -8.601562 7.09375 -7.96875 C 7.09375 -7.601562 6.96875 -7.300781 6.71875 -7.0625 C 6.46875 -6.832031 6.144531 -6.71875 5.75 -6.71875 C 5.519531 -6.726562 5.34375 -6.785156 5.21875 -6.890625 C 5.101562 -6.992188 5.046875 -7.09375 5.046875 -7.1875 C 5.046875 -7.195312 5.113281 -7.226562 5.25 -7.28125 C 5.382812 -7.34375 5.503906 -7.4375 5.609375 -7.5625 C 5.710938 -7.6875 5.765625 -7.851562 5.765625 -8.0625 C 5.765625 -8.4375 5.617188 -8.726562 5.328125 -8.9375 C 5.046875 -9.15625 4.679688 -9.265625 4.234375 -9.265625 C 3.617188 -9.265625 3.148438 -9.117188 2.828125 -8.828125 C 2.515625 -8.546875 2.359375 -8.191406 2.359375 -7.765625 C 2.359375 -7.410156 2.453125 -7.113281 2.640625 -6.875 C 2.835938 -6.632812 3.144531 -6.398438 3.5625 -6.171875 C 3.90625 -5.984375 4.28125 -5.800781 4.6875 -5.625 C 5.34375 -5.320312 5.859375 -5.050781 6.234375 -4.8125 C 6.609375 -4.570312 6.925781 -4.253906 7.1875 -3.859375 C 7.445312 -3.460938 7.578125 -2.972656 7.578125 -2.390625 C 7.578125 -1.878906 7.414062 -1.414062 7.09375 -1 C 6.78125 -0.59375 6.351562 -0.273438 5.8125 -0.046875 C 5.269531 0.179688 4.675781 0.296875 4.03125 0.296875 Z M 4.03125 0.296875 "/></g></g></g><g fill="#000000" fill-opacity="1"><g transform="translate(126.189925, 206.032722)"><g><path d="M 0.796875 0.046875 C 0.710938 0.046875 0.644531 0.015625 0.59375 -0.046875 C 0.539062 -0.117188 0.515625 -0.195312 0.515625 -0.28125 C 0.523438 -0.425781 0.550781 -0.515625 0.59375 -0.546875 C 0.644531 -0.585938 0.71875 -0.609375 0.8125 -0.609375 C 1.03125 -0.609375 1.191406 -0.625 1.296875 -0.65625 C 1.410156 -0.695312 1.519531 -0.78125 1.625 -0.90625 C 1.738281 -1.03125 1.875 -1.234375 2.03125 -1.515625 L 5.4375 -7.828125 C 5.625 -8.210938 5.71875 -8.488281 5.71875 -8.65625 C 5.71875 -8.800781 5.65625 -8.890625 5.53125 -8.921875 C 5.40625 -8.953125 5.175781 -8.96875 4.84375 -8.96875 L 3.1875 -8.96875 C 2.84375 -8.957031 2.578125 -8.898438 2.390625 -8.796875 C 2.210938 -8.691406 2.066406 -8.523438 1.953125 -8.296875 C 1.847656 -8.078125 1.71875 -7.71875 1.5625 -7.21875 C 1.53125 -7.125 1.46875 -7.054688 1.375 -7.015625 C 1.289062 -6.984375 1.1875 -6.976562 1.0625 -7 C 0.96875 -7.019531 0.890625 -7.0625 0.828125 -7.125 C 0.765625 -7.1875 0.738281 -7.257812 0.75 -7.34375 L 1.046875 -9.265625 C 1.078125 -9.398438 1.125 -9.484375 1.1875 -9.515625 C 1.25 -9.554688 1.347656 -9.578125 1.484375 -9.578125 L 6.703125 -9.578125 C 7.285156 -9.578125 7.90625 -9.59375 8.5625 -9.625 C 8.65625 -9.625 8.722656 -9.59375 8.765625 -9.53125 C 8.816406 -9.46875 8.84375 -9.390625 8.84375 -9.296875 C 8.832031 -9.148438 8.804688 -9.0625 8.765625 -9.03125 C 8.722656 -9 8.664062 -8.976562 8.59375 -8.96875 C 8.53125 -8.96875 8.484375 -8.96875 8.453125 -8.96875 C 8.117188 -8.957031 7.851562 -8.847656 7.65625 -8.640625 C 7.46875 -8.441406 7.285156 -8.171875 7.109375 -7.828125 L 3.78125 -1.515625 C 3.6875 -1.316406 3.640625 -1.164062 3.640625 -1.0625 C 3.640625 -0.769531 3.914062 -0.617188 4.46875 -0.609375 L 6.25 -0.609375 C 6.601562 -0.617188 6.867188 -0.675781 7.046875 -0.78125 C 7.234375 -0.882812 7.382812 -1.046875 7.5 -1.265625 C 7.613281 -1.492188 7.742188 -1.863281 7.890625 -2.375 C 7.941406 -2.550781 8.113281 -2.617188 8.40625 -2.578125 C 8.488281 -2.554688 8.5625 -2.515625 8.625 -2.453125 C 8.695312 -2.398438 8.726562 -2.328125 8.71875 -2.234375 L 8.40625 -0.3125 C 8.382812 -0.1875 8.34375 -0.101562 8.28125 -0.0625 C 8.21875 -0.0195312 8.113281 0 7.96875 0 L 2.609375 0 C 2.054688 0 1.453125 0.015625 0.796875 0.046875 Z M 0.796875 0.046875 "/></g></g></g></svg>